<?xml version="1.0" standalone="no"?>
<!DOCTYPE svg PUBLIC "-//W3C//DTD SVG 20010904//EN"
 "http://www.w3.org/TR/2001/REC-SVG-20010904/DTD/svg10.dtd">
<svg version="1.0" xmlns="http://www.w3.org/2000/svg"
 width="500.000000pt" height="500.000000pt" viewBox="0 0 500.000000 500.000000"
 preserveAspectRatio="xMidYMid meet">
<metadata>
Created by potrace 1.14, written by Peter Selinger 2001-2017
</metadata>
<g transform="translate(0.000000,500.000000) scale(0.100000,-0.100000)"
fill="#000000" stroke="none">
<path d="M1880 3545 c0 -3 36 -53 80 -112 44 -58 80 -109 80 -113 0 -3 -65
-305 -145 -671 -80 -365 -145 -667 -145 -672 0 -4 89 -6 197 -5 l197 3 162
745 162 745 -26 35 c-14 19 -31 38 -36 42 -12 9 -526 11 -526 3z"/>
<path d="M2563 3443 c40 -54 76 -103 80 -110 4 -6 -58 -309 -138 -673 -80
-364 -145 -666 -145 -671 0 -5 103 -9 243 -9 239 -1 242 -1 282 -25 22 -14 43
-25 48 -25 4 0 7 16 7 36 0 31 3 35 18 29 9 -4 28 -9 42 -11 25 -4 25 -4 3 7
-19 10 -23 21 -23 56 0 23 4 43 9 43 17 0 148 -58 189 -84 82 -51 226 -27 275
47 13 20 142 577 135 582 -2 1 -36 22 -75 46 -40 24 -73 46 -73 49 0 3 44 28
98 55 l97 50 67 305 c74 333 74 340 18 380 -27 19 -47 20 -629 20 l-602 0 74
-97z m770 -220 c-3 -16 -14 -62 -23 -103 l-16 -75 -160 -93 c-87 -51 -164 -96
-170 -100 -7 -5 2 -53 30 -154 23 -80 44 -149 47 -153 4 -3 39 10 79 30 40 20
74 35 76 33 8 -8 -25 -120 -40 -137 -20 -22 -21 -75 -1 -95 8 -8 15 -28 15
-45 0 -39 -39 -70 -162 -132 -85 -43 -95 -46 -119 -34 -14 8 -31 21 -38 29
-11 14 -5 19 48 42 34 15 59 29 57 31 -3 3 -30 -7 -62 -21 -31 -14 -60 -26
-64 -26 -16 0 -32 67 -21 87 6 10 28 101 50 203 l40 185 -24 85 c-14 47 -25
92 -25 100 0 8 24 31 54 49 l54 35 27 125 c14 70 28 134 31 144 5 15 22 17
165 17 l159 0 -7 -27z"/>
<path d="M2033 1813 c-12 -2 -34 -18 -48 -34 -33 -40 -34 -91 0 -124 33 -34
75 -33 114 4 26 24 31 37 31 73 0 23 -4 48 -8 54 -8 13 -47 35 -59 33 -4 -1
-18 -4 -30 -6z m42 -73 c9 -14 -13 -50 -31 -50 -17 0 -28 24 -20 45 6 17 42
20 51 5z"/>
<path d="M2405 1812 c-88 -5 -105 -11 -105 -37 0 -20 5 -25 25 -25 24 0 25 -3
25 -61 0 -60 0 -60 28 -57 26 3 27 6 30 66 3 53 6 62 22 62 10 0 21 6 23 13 3
6 6 -10 6 -38 2 -70 10 -95 32 -95 14 0 19 7 19 30 0 28 3 30 35 30 28 0 35 4
35 20 0 16 -7 20 -35 20 -24 0 -35 5 -35 15 0 10 11 15 35 15 28 0 35 4 35 20
0 16 -6 20 -32 19 -18 -1 -44 -4 -58 -8 -14 -4 -29 -3 -35 3 -5 6 -28 10 -50
8z"/>
<path d="M1840 1801 l-35 -6 0 -85 c0 -81 1 -85 23 -88 17 -3 25 2 29 17 3 12
13 21 25 21 29 0 68 45 68 79 0 28 -22 61 -40 61 -5 0 -14 2 -22 4 -7 2 -29 1
-48 -3z m55 -71 c0 -8 -8 -16 -17 -18 -13 -2 -18 3 -18 18 0 15 5 20 18 18 9
-2 17 -10 17 -18z"/>
<path d="M2170 1802 c-24 -7 -25 -12 -28 -86 -2 -44 1 -83 7 -89 13 -13 51 1
51 19 0 20 18 17 32 -6 15 -24 31 -25 48 -5 10 12 10 18 1 29 -9 11 -9 20 -2
35 15 26 14 63 -2 84 -14 20 -70 29 -107 19z m68 -69 c-5 -26 -38 -29 -38 -4
0 15 6 21 21 21 14 0 19 -5 17 -17z"/>
<path d="M2635 1788 c-34 -30 -44 -88 -21 -123 13 -19 25 -25 54 -25 59 1 92
38 92 103 0 64 -72 90 -125 45z m74 -42 c14 -16 5 -43 -18 -55 -24 -12 -41 -3
-41 23 0 40 36 60 59 32z"/>
<path d="M3035 1798 c-11 -6 -25 -19 -32 -27 -18 -23 -16 -97 3 -115 18 -18
66 -21 95 -6 24 13 49 61 49 95 0 52 -64 82 -115 53z m63 -64 c4 -31 -24 -57
-49 -44 -24 13 -25 46 -1 59 25 15 47 9 50 -15z"/>
<path d="M2785 1747 c-4 -29 -5 -64 -3 -78 3 -22 7 -24 58 -24 49 0 55 2 58
22 3 20 0 21 -32 16 l-36 -6 0 62 c0 54 -2 61 -19 61 -16 0 -21 -10 -26 -53z"/>
<path d="M2910 1743 c0 -77 8 -103 31 -103 17 0 19 8 19 80 0 79 0 80 -25 80
-24 0 -25 -3 -25 -57z"/>
</g>
</svg>
